<svg width="60" height="60" viewBox="0 0 60 60" fill="none" xmlns="http://www.w3.org/2000/svg">
<circle cx="30" cy="30" r="29.75" stroke="#222222" stroke-opacity="0.4" stroke-width="0.5"/>
<path d="M31.6667 30.0002L28.75 31.6668V28.3335L31.6667 30.0002Z" fill="#222222" stroke="#222222" stroke-width="1.5" stroke-linecap="round" stroke-linejoin="round"/>
<path d="M21.667 30.5893V29.4102C21.667 26.9977 21.667 25.791 22.4212 25.0152C23.1762 24.2385 24.3645 24.2052 26.7403 24.1377C27.8653 24.106 29.0153 24.0835 30.0003 24.0835C30.9845 24.0835 32.1345 24.106 33.2603 24.1377C35.6362 24.2052 36.8245 24.2385 37.5787 25.0152C38.3337 25.791 38.3337 26.9985 38.3337 29.4102V30.5893C38.3337 33.0027 38.3337 34.2085 37.5795 34.9852C36.8245 35.761 35.637 35.7952 33.2603 35.8618C32.1353 35.8943 30.9853 35.9168 30.0003 35.9168C28.9135 35.9136 27.8267 35.8952 26.7403 35.8618C24.3645 35.7952 23.1762 35.7618 22.4212 34.9852C21.667 34.2085 21.667 33.0018 21.667 30.5902V30.5893Z" stroke="#222222" stroke-width="1.5"/>
</svg>
