<svg width="31" height="30" viewBox="0 0 31 30" fill="none" xmlns="http://www.w3.org/2000/svg">
<path d="M8.10926 29.8939C6.30131 29.8128 5.31918 29.5159 4.66593 29.2644C3.80035 28.9319 3.18324 28.536 2.53361 27.8958C1.88398 27.2556 1.48191 26.6467 1.1467 25.7925C0.891908 25.1479 0.591034 24.1787 0.508814 22.3946C0.418461 20.466 0.400391 19.8874 0.400391 15.0013C0.400391 10.1153 0.420268 9.53755 0.50791 7.60722C0.590131 5.8231 0.892811 4.85571 1.1458 4.20929C1.48281 3.35513 1.88488 2.74616 2.53271 2.1042C3.18144 1.46402 3.79854 1.06637 4.66502 0.735578C5.31827 0.484144 6.3004 0.187238 8.10835 0.106102C10.0636 0.0178322 10.6509 0 15.6004 0C20.5517 0 21.1372 0.0196154 23.0933 0.106102C24.9013 0.187238 25.8816 0.485927 26.5366 0.735578C27.4022 1.06637 28.0193 1.46402 28.6689 2.1042C29.3186 2.74438 29.7188 3.35424 30.0559 4.2084C30.3106 4.85303 30.6115 5.82221 30.6937 7.60632C30.7832 9.53666 30.8013 10.1144 30.8013 15.0004C30.8013 19.8847 30.7832 20.4642 30.6937 22.3946C30.6115 24.1787 30.3088 25.1479 30.0559 25.7925C29.7188 26.6467 29.3177 27.2556 28.6689 27.8958C28.0202 28.536 27.4022 28.9319 26.5366 29.2644C25.8834 29.5159 24.9013 29.8128 23.0933 29.8939C21.139 29.9822 20.5517 30 15.6004 30C10.6509 30 10.0636 29.9831 8.10926 29.8939Z" fill="url(#paint0_radial_2694_51321)"/>
<path d="M12.1513 14.8938C12.1513 13.0724 13.6471 11.5956 15.4928 11.5956C17.3384 11.5956 18.835 13.0724 18.835 14.8938C18.835 16.7151 17.3384 18.1919 15.4928 18.1919C13.6471 18.1919 12.1513 16.7151 12.1513 14.8938ZM10.3445 14.8938C10.3445 17.6996 12.6494 19.9741 15.4928 19.9741C18.3361 19.9741 20.641 17.6996 20.641 14.8938C20.641 12.0879 18.3361 9.81343 15.4928 9.81343C12.6494 9.81343 10.3446 12.0877 10.3446 14.8938M19.6417 9.61199C19.6416 9.84681 19.7121 10.0764 19.8442 10.2717C19.9763 10.467 20.1642 10.6192 20.384 10.7092C20.6038 10.7991 20.8457 10.8227 21.0791 10.777C21.3125 10.7313 21.5269 10.6183 21.6952 10.4523C21.8636 10.2863 21.9782 10.0748 22.0247 9.84455C22.0713 9.61427 22.0475 9.37554 21.9566 9.15856C21.8656 8.94159 21.7115 8.7561 21.5137 8.62557C21.3159 8.49503 21.0833 8.42531 20.8453 8.42522H20.8448C20.5259 8.42536 20.22 8.55043 19.9945 8.77295C19.7689 8.99547 19.642 9.29724 19.6417 9.61199ZM11.4423 22.9471C10.4648 22.9032 9.93348 22.7425 9.58041 22.6068C9.11231 22.4269 8.77833 22.2128 8.42718 21.8667C8.07603 21.5207 7.85867 21.1914 7.67724 20.7295C7.5396 20.3812 7.37678 19.8568 7.33235 18.8922C7.28374 17.8493 7.27404 17.536 7.27404 14.8939C7.27404 12.2518 7.28454 11.9394 7.33235 10.8956C7.37686 9.93105 7.54089 9.40763 7.67724 9.05834C7.85947 8.59642 8.07651 8.26684 8.42718 7.92032C8.77785 7.5738 9.11151 7.3593 9.58041 7.18027C9.93332 7.04444 10.4648 6.88377 11.4423 6.83992C12.4991 6.79196 12.8165 6.78238 15.4928 6.78238C18.169 6.78238 18.4867 6.79259 19.5444 6.84008C20.5219 6.88401 21.0523 7.04587 21.4063 7.18042C21.8744 7.35946 22.2084 7.57443 22.5595 7.92048C22.9107 8.26652 23.1272 8.59658 23.3095 9.0585C23.4471 9.40676 23.6099 9.9312 23.6544 10.8958C23.703 11.9396 23.7127 12.252 23.7127 14.8941C23.7127 17.5362 23.703 17.8486 23.6544 18.8923C23.6098 19.8569 23.4462 20.3812 23.3095 20.7296C23.1272 21.1916 22.9102 21.5211 22.5595 21.8669C22.2089 22.2126 21.8744 22.4271 21.4063 22.6069C21.0534 22.7427 20.5219 22.9034 19.5444 22.9473C18.4876 22.9952 18.1702 23.0048 15.4928 23.0048C12.8153 23.0048 12.4988 22.9952 11.4423 22.9473M11.3593 5.05992C10.2919 5.10788 9.5626 5.27489 8.92567 5.51946C8.26644 5.77203 7.70764 6.11087 7.14963 6.66065C6.59163 7.21042 6.24914 7.76194 5.9932 8.41326C5.74536 9.04219 5.57612 9.76151 5.52751 10.8148C5.47811 11.8697 5.4668 12.2069 5.4668 14.8938C5.4668 17.5806 5.47811 17.9178 5.52751 18.9727C5.57612 20.0261 5.74536 20.7453 5.9932 21.3742C6.24914 22.0248 6.59171 22.5773 7.14963 23.1269C7.70756 23.6764 8.26564 24.0148 8.92567 24.268C9.5638 24.5126 10.2919 24.6796 11.3593 24.7276C12.4288 24.7755 12.77 24.7875 15.4928 24.7875C18.2155 24.7875 18.5572 24.7763 19.6263 24.7276C20.6937 24.6796 21.4225 24.5126 22.0598 24.268C22.7191 24.0148 23.2779 23.6766 23.8359 23.1269C24.3939 22.5771 24.7356 22.0248 24.9923 21.3742C25.2401 20.7453 25.4102 20.026 25.458 18.9727C25.5066 17.917 25.5179 17.5806 25.5179 14.8938C25.5179 12.2069 25.5066 11.8697 25.458 10.8148C25.4094 9.76143 25.2401 9.0418 24.9923 8.41326C24.7356 7.76273 24.393 7.21129 23.8359 6.66065C23.2787 6.11 22.7191 5.77203 22.0606 5.51946C21.4225 5.27489 20.6936 5.10709 19.6271 5.05992C18.5579 5.01171 18.2163 5 15.494 5C12.7716 5 12.4292 5.01116 11.3597 5.05992" fill="white"/>
<defs>
<radialGradient id="paint0_radial_2694_51321" cx="0" cy="0" r="1" gradientUnits="userSpaceOnUse" gradientTransform="translate(2.3679 29.3428) scale(38.5978 38.0889)">
<stop offset="0.09" stop-color="#060606"/>
<stop offset="0.78"/>
</radialGradient>
</defs>
</svg>
