<svg width="60" height="60" viewBox="0 0 60 60" fill="none" xmlns="http://www.w3.org/2000/svg">
<circle cx="30" cy="30" r="29.75" stroke="#222222" stroke-opacity="0.4" stroke-width="0.5"/>
<path d="M34.4052 26.5945C34.9509 26.5945 35.3933 26.1521 35.3933 25.6063C35.3933 25.0606 34.9509 24.6182 34.4052 24.6182C33.8594 24.6182 33.417 25.0606 33.417 25.6063C33.417 26.1521 33.8594 26.5945 34.4052 26.5945Z" fill="#222222"/>
<path d="M38.531 24.106C38.2995 23.5082 37.9457 22.9653 37.4923 22.5121C37.0389 22.0588 36.4959 21.7053 35.898 21.474C35.1983 21.2114 34.4592 21.0693 33.712 21.054C32.749 21.012 32.444 21 30.002 21C27.56 21 27.247 21 26.292 21.054C25.5454 21.0686 24.8068 21.2106 24.108 21.474C23.5099 21.705 22.9668 22.0585 22.5133 22.5117C22.0599 22.965 21.7062 23.508 21.475 24.106C21.2123 24.8056 21.0706 25.5448 21.056 26.292C21.013 27.254 21 27.559 21 30.002C21 32.444 21 32.755 21.056 33.712C21.071 34.46 21.212 35.198 21.475 35.899C21.7069 36.4968 22.0609 37.0396 22.5144 37.4928C22.968 37.946 23.5111 38.2996 24.109 38.531C24.8064 38.8042 25.5454 38.9564 26.294 38.981C27.257 39.023 27.562 39.036 30.004 39.036C32.446 39.036 32.759 39.036 33.714 38.981C34.4611 38.9658 35.2002 38.8241 35.9 38.562C36.4978 38.3302 37.0406 37.9763 37.494 37.523C37.9473 37.0696 38.3012 36.5268 38.533 35.929C38.796 35.229 38.937 34.491 38.952 33.743C38.995 32.781 39.008 32.476 39.008 30.033C39.008 27.59 39.008 27.28 38.952 26.323C38.9404 25.5653 38.7979 24.8152 38.531 24.106ZM37.313 33.638C37.3066 34.2143 37.2014 34.7852 37.002 35.326C36.8518 35.7149 36.6219 36.068 36.3271 36.3627C36.0322 36.6574 35.679 36.8871 35.29 37.037C34.7552 37.2354 34.1904 37.3406 33.62 37.348C32.67 37.392 32.402 37.403 29.966 37.403C27.528 37.403 27.279 37.403 26.311 37.348C25.7409 37.341 25.1763 37.2358 24.642 37.037C24.2517 36.888 23.897 36.6587 23.6009 36.364C23.3048 36.0692 23.0738 35.7156 22.923 35.326C22.7264 34.791 22.6213 34.2268 22.612 33.657C22.569 32.707 22.559 32.439 22.559 30.003C22.559 27.566 22.559 27.317 22.612 26.348C22.6185 25.772 22.7237 25.2014 22.923 24.661C23.228 23.872 23.853 23.251 24.642 22.949C25.1766 22.7511 25.741 22.646 26.311 22.638C27.262 22.595 27.529 22.583 29.966 22.583C32.403 22.583 32.653 22.583 33.62 22.638C34.1904 22.6449 34.7554 22.7501 35.29 22.949C35.6789 23.0993 36.0321 23.3292 36.327 23.624C36.6218 23.9189 36.8517 24.2721 37.002 24.661C37.1986 25.1959 37.3037 25.7602 37.313 26.33C37.356 27.281 37.367 27.548 37.367 29.985C37.367 32.421 37.367 32.683 37.324 33.639H37.313V33.638Z" fill="#222222"/>
<path d="M29.993 25.3633C28.7672 25.3633 27.5916 25.8495 26.7248 26.7149C25.858 27.5804 25.3711 28.7541 25.3711 29.9781C25.3711 31.202 25.858 32.3758 26.7248 33.2412C27.5916 34.1066 28.7672 34.5928 29.993 34.5928C31.2189 34.5928 32.3945 34.1066 33.2612 33.2412C34.128 32.3758 34.615 31.202 34.615 29.9781C34.615 28.7541 34.128 27.5804 33.2612 26.7149C32.3945 25.8495 31.2189 25.3633 29.993 25.3633ZM29.993 32.9751C29.1967 32.9751 28.4329 32.6592 27.8698 32.097C27.3067 31.5347 26.9904 30.7722 26.9904 29.9771C26.9904 29.1819 27.3067 28.4194 27.8698 27.8571C28.4329 27.2949 29.1967 26.9791 29.993 26.9791C30.7894 26.9791 31.5531 27.2949 32.1162 27.8571C32.6794 28.4194 32.9957 29.1819 32.9957 29.9771C32.9957 30.7722 32.6794 31.5347 32.1162 32.097C31.5531 32.6592 30.7894 32.9751 29.993 32.9751Z" fill="#222222"/>
</svg>
