<svg width="32" height="30" viewBox="0 0 32 30" fill="none" xmlns="http://www.w3.org/2000/svg">
<rect x="0.801758" width="30.4009" height="30" rx="15" fill="black"/>
<path d="M24.8547 10.7059C24.646 9.94118 24.035 9.33824 23.2601 9.13235C21.8444 8.75 16.1815 8.75 16.1815 8.75C16.1815 8.75 10.5186 8.75 9.10286 9.11765C8.34284 9.32353 7.71694 9.94118 7.5083 10.7059C7.13574 12.1029 7.13574 15 7.13574 15C7.13574 15 7.13574 17.9118 7.5083 19.2941C7.71694 20.0588 8.32793 20.6618 9.10286 20.8676C10.5335 21.25 16.1815 21.25 16.1815 21.25C16.1815 21.25 21.8444 21.25 23.2601 20.8824C24.035 20.6765 24.646 20.0735 24.8547 19.3088C25.2272 17.9118 25.2272 15.0147 25.2272 15.0147C25.2272 15.0147 25.2421 12.1029 24.8547 10.7059Z" fill="white"/>
<path d="M14.3779 17.6767L19.0871 15.0002L14.3779 12.3237V17.6767Z" fill="black"/>
</svg>
