<svg width="1440" height="1467" viewBox="0 0 1440 1467" fill="none" xmlns="http://www.w3.org/2000/svg">
<path d="M85.6618 -57.2V165.82L253.872 -57.2H374.202L221.742 141.88L375.462 409H257.652L154.962 228.82L85.6618 319.54V409H-16.3982V-57.2H85.6618ZM577.052 231.97L419.552 -57.2H533.582L611.702 94C619.262 108.49 624.302 119.83 629.342 131.8C635.012 120.46 640.052 108.49 647.612 93.37L725.732 -57.2H836.612L679.112 231.97V409H577.052V231.97ZM1024.76 -57.2V409H922.696V-57.2H1024.76ZM1285.83 409L1111.32 -57.2H1220.31L1308.51 178.42C1319.22 207.4 1328.04 236.38 1338.12 276.7C1350.09 231.97 1358.91 206.14 1368.99 178.42L1455.93 -57.2H1562.4L1391.04 409H1285.83ZM85.6618 509.8V732.82L253.872 509.8H374.202L221.742 708.88L375.462 976H257.652L154.962 795.82L85.6618 886.54V976H-16.3982V509.8H85.6618ZM577.052 798.97L419.552 509.8H533.582L611.702 661C619.262 675.49 624.302 686.83 629.342 698.8C635.012 687.46 640.052 675.49 647.612 660.37L725.732 509.8H836.612L679.112 798.97V976H577.052V798.97ZM1024.76 509.8V976H922.696V509.8H1024.76ZM1285.83 976L1111.32 509.8H1220.31L1308.51 745.42C1319.22 774.4 1328.04 803.38 1338.12 843.7C1350.09 798.97 1358.91 773.14 1368.99 745.42L1455.93 509.8H1562.4L1391.04 976H1285.83ZM85.6618 1076.8V1299.82L253.872 1076.8H374.202L221.742 1275.88L375.462 1543H257.652L154.962 1362.82L85.6618 1453.54V1543H-16.3982V1076.8H85.6618ZM577.052 1365.97L419.552 1076.8H533.582L611.702 1228C619.262 1242.49 624.302 1253.83 629.342 1265.8C635.012 1254.46 640.052 1242.49 647.612 1227.37L725.732 1076.8H836.612L679.112 1365.97V1543H577.052V1365.97ZM1024.76 1076.8V1543H922.696V1076.8H1024.76ZM1285.83 1543L1111.32 1076.8H1220.31L1308.51 1312.42C1319.22 1341.4 1328.04 1370.38 1338.12 1410.7C1350.09 1365.97 1358.91 1340.14 1368.99 1312.42L1455.93 1076.8H1562.4L1391.04 1543H1285.83Z" fill="#7E3C3C" fill-opacity="0.05"/>
</svg>
